<svg xmlns="http://www.w3.org/2000/svg" version="1.0" preserveAspectRatio="xMidYMid meet" viewBox="25.29 33.97 845.16 475.52">
<metadata>
Created by potrace 1.10, written by Peter Selinger 2001-2011
</metadata>
<g transform="translate(0.000000,549.000000) scale(0.100000,-0.100000)" fill="#000000" stroke="none">
<path d="M3005 5125 l-25 -24 0 -603 c0 -332 -4 -609 -9 -617 -5 -7 -30 -25 -55 -40 -26 -14 -101 -60 -167 -101 -158 -99 -259 -160 -339 -206 -36 -21 -84 -50 -107 -66 -23 -15 -44 -28 -48 -28 -3 0 -43 -24 -88 -53 -45 -30 -115 -73 -155 -98 -40 -24 -84 -51 -96 -59 -43 -28 -167 -105 -187 -116 -11 -6 -32 -22 -47 -36 -32 -29 -80 -51 -93 -43 -5 4 -9 206 -9 495 l0 489 -22 21 c-25 23 -56 26 -84 6 -18 -14 -19 -32 -20 -553 l-2 -538 -33 -27 c-18 -16 -37 -28 -40 -28 -4 0 -36 -19 -71 -42 -35 -24 -79 -52 -98 -62 -19 -10 -54 -32 -78 -48 -24 -15 -45 -28 -47 -28 -3 0 -34 -20 -71 -45 -36 -25 -68 -45 -72 -45 -4 0 -37 -20 -73 -43 -36 -24 -72 -47 -80 -50 -8 -4 -26 -15 -40 -25 -31 -20 -179 -112 -304 -187 -49 -30 -98 -64 -107 -76 -38 -46 -12 -99 48 -99 30 0 100 37 229 120 12 8 65 41 116 73 52 32 157 98 234 145 77 48 167 105 200 126 33 21 86 55 118 75 32 20 73 48 92 64 34 28 75 36 75 15 4 -118 -2 -1773 -6 -1779 -3 -5 -266 -9 -590 -9 l-584 0 -11 -27 c-6 -15 -8 -42 -4 -60 5 -27 11 -33 42 -39 19 -4 282 -5 584 -2 302 2 553 2 559 -2 7 -4 12 -80 14 -215 3 -203 4 -209 26 -227 25 -20 53 -17 83 10 15 13 17 38 17 223 0 208 0 209 23 213 12 3 326 4 697 3 l675 -2 3 -198 c3 -210 9 -238 53 -252 29 -9 76 4 84 23 4 9 6 105 5 213 0 156 2 198 13 208 11 8 349 10 1343 9 l1329 -3 3 -200 c2 -191 3 -201 25 -229 29 -36 73 -38 99 -6 16 20 18 44 18 215 0 106 3 200 6 209 6 14 76 16 698 16 525 0 695 -3 704 -12 9 -9 12 -72 12 -220 l0 -209 32 -14 c28 -11 37 -11 60 1 49 25 52 42 45 250 -6 175 -5 193 10 198 9 4 269 4 578 1 634 -7 611 -10 609 63 0 23 -4 45 -8 50 -4 4 -273 9 -597 12 l-590 5 -4 845 c-2 465 -5 870 -7 900 -4 67 13 76 64 31 18 -16 54 -40 78 -53 25 -13 72 -42 105 -63 85 -56 313 -198 495 -308 85 -52 187 -115 225 -141 101 -66 165 -63 165 9 0 35 -18 53 -102 105 -133 81 -272 167 -308 190 -66 42 -211 130 -215 130 -2 0 -32 19 -67 43 -35 24 -70 46 -78 50 -8 4 -40 23 -70 42 -30 19 -75 46 -100 60 -25 14 -76 46 -115 73 l-70 47 0 538 0 538 -25 19 c-31 24 -62 25 -89 3 -22 -18 -22 -22 -27 -508 l-6 -490 -21 3 c-11 1 -28 8 -36 16 -9 7 -97 62 -196 121 -99 60 -218 133 -265 164 -47 30 -101 64 -120 74 -19 11 -54 32 -78 48 -24 16 -46 29 -50 29 -5 0 -39 20 -76 45 -38 25 -70 45 -72 45 -1 0 -41 24 -89 53 -48 28 -97 58 -108 65 -12 7 -49 30 -82 52 -33 21 -90 56 -127 76 -36 21 -71 48 -77 60 -7 16 -9 206 -5 601 5 556 4 579 -14 613 -25 46 -70 53 -107 16 l-25 -25 0 -395 0 -396 -26 -6 c-14 -4 -77 -3 -140 0 -137 9 -161 0 -166 -61 -2 -31 -7 -39 -27 -41 -14 -2 -33 6 -50 21 -14 14 -55 42 -91 63 -36 21 -121 74 -190 119 -69 45 -139 89 -156 98 -18 9 -72 43 -122 77 -49 33 -92 60 -95 60 -5 0 -37 20 -192 122 -70 46 -103 47 -163 1 -20 -15 -46 -33 -57 -40 -29 -17 -202 -125 -229 -143 -13 -8 -57 -35 -97 -59 -41 -24 -110 -67 -154 -95 -44 -28 -89 -57 -100 -64 -62 -38 -209 -128 -267 -165 -36 -23 -81 -51 -99 -62 -41 -25 -58 -36 -154 -103 -41 -29 -83 -52 -93 -50 -16 3 -17 40 -17 559 0 514 -1 557 -18 582 -23 35 -68 37 -102 2z m1678 -905 c111 -67 209 -125 217 -130 59 -36 401 -242 427 -256 17 -11 80 -49 140 -85 59 -36 115 -68 123 -72 8 -4 29 -16 45 -27 17 -10 54 -31 83 -47 63 -33 91 -57 94 -81 1 -9 2 -116 3 -237 1 -121 6 -268 10 -326 7 -104 6 -107 -16 -123 -21 -15 -143 -16 -1340 -16 -1041 0 -1319 3 -1326 13 -8 10 -28 394 -23 447 1 8 1 64 1 125 -1 125 5 139 70 173 24 13 58 32 74 42 17 10 41 25 55 33 14 7 81 47 148 88 68 41 131 79 141 84 13 8 239 143 300 180 9 6 54 32 101 59 47 27 121 73 166 102 45 29 99 62 120 74 21 11 64 38 94 59 30 22 63 39 73 40 10 1 109 -53 220 -119z m1341 -790 c21 -16 85 -57 143 -92 58 -35 117 -71 132 -80 14 -10 33 -21 41 -25 8 -4 55 -31 105 -60 96 -57 113 -61 168 -38 46 19 67 50 67 97 0 56 29 68 76 31 40 -30 149 -98 364 -229 80 -48 165 -101 190 -118 25 -17 46 -31 48 -32 1 -1 2 -426 2 -945 0 -737 -3 -945 -13 -951 -6 -4 -321 -8 -699 -8 -544 0 -688 3 -689 13 -5 82 4 1693 9 1698 19 18 179 24 394 17 128 -5 321 -8 428 -6 169 3 200 5 224 21 22 15 27 25 24 50 -3 27 -9 34 -43 45 -46 16 -298 18 -741 6 -184 -4 -283 -3 -287 3 -5 8 -12 525 -8 611 1 30 21 28 65 -8z m-3028 -14 c3 -13 0 -50 -6 -82 -8 -37 -11 -131 -9 -269 3 -172 1 -215 -10 -229 -13 -15 -28 -16 -120 -11 -58 3 -272 8 -475 11 -285 4 -380 2 -413 -8 -46 -13 -58 -32 -51 -79 7 -49 39 -52 563 -45 381 5 484 4 497 -6 14 -12 15 -91 10 -861 l-5 -847 -21 -5 c-12 -3 -325 -4 -696 -3 l-675 3 -5 925 c-3 605 -2 933 5 950 7 16 64 57 175 125 91 55 206 127 255 159 143 94 214 136 230 136 10 0 15 -10 15 -28 0 -45 38 -91 98 -118 44 -20 76 -9 205 68 53 32 100 58 103 58 4 0 23 12 43 28 42 31 62 44 113 72 21 11 57 33 80 50 54 37 85 39 94 6z m1401 -753 c5 -10 7 -109 5 -220 l-4 -203 -198 0 c-187 0 -200 1 -210 19 -5 11 -10 72 -10 136 0 134 12 167 79 228 23 20 42 38 44 38 1 1 63 5 137 9 74 3 138 7 142 8 4 1 11 -6 15 -15z m435 -10 c56 -26 96 -69 121 -131 23 -61 21 -257 -3 -272 -8 -5 -104 -10 -212 -10 -178 0 -198 2 -207 18 -5 10 -5 68 0 150 6 86 6 152 0 185 -9 47 -8 54 11 70 31 26 224 20 290 -10z m-435 -535 c4 -7 6 -103 4 -213 -2 -171 -5 -202 -19 -212 -9 -8 -46 -13 -91 -13 -153 1 -244 43 -289 133 -19 38 -22 60 -22 158 0 63 5 121 10 129 7 12 44 16 182 20 95 3 183 7 195 8 12 1 25 -4 30 -10z m561 -10 c8 -7 12 -43 12 -113 0 -130 -23 -199 -84 -252 -52 -45 -115 -62 -232 -63 -71 0 -94 3 -104 16 -16 19 -25 401 -10 419 12 14 399 8 418 -7z"/>
<path d="M4365 3713 c-44 -30 -109 -73 -145 -94 -83 -50 -96 -58 -143 -91 -22 -16 -45 -28 -52 -28 -7 0 -31 -13 -53 -30 -23 -16 -44 -30 -46 -30 -3 0 -33 -19 -68 -43 -35 -24 -70 -46 -78 -50 -8 -4 -60 -36 -115 -71 -55 -36 -140 -90 -190 -121 -49 -31 -124 -79 -165 -106 -41 -27 -83 -52 -92 -55 -29 -10 -20 -33 15 -39 55 -9 2491 -1 2506 9 17 11 -7 32 -83 74 -27 15 -56 32 -65 37 -9 6 -34 22 -56 35 -23 14 -50 31 -60 37 -11 7 -51 32 -89 55 -38 24 -79 50 -92 58 -13 8 -51 33 -86 54 -35 22 -79 52 -99 68 -20 15 -39 28 -42 28 -7 0 -245 142 -298 178 -26 18 -49 32 -52 32 -3 0 -56 34 -116 75 -62 42 -121 75 -133 74 -13 0 -59 -25 -103 -56z"/>
</g>
</svg>