<svg xmlns="http://www.w3.org/2000/svg" xmlns:xlink="http://www.w3.org/1999/xlink" version="1.1" id="Layer_1" x="0px" y="0px" enable-background="new 0 0 897 509" xml:space="preserve" viewBox="1 1 897 509">
<path fill="#FEFEFE" opacity="1.000000" stroke="none" d=" M672.000000,510.000000   C448.000000,510.000000 224.500000,510.000000 1.000000,510.000000   C1.000000,340.333344 1.000000,170.666672 1.000000,1.000000   C300.000000,1.000000 599.000000,1.000000 898.000000,1.000000   C898.000000,170.666672 898.000000,340.333344 898.000000,510.000000   C822.833313,510.000000 747.666687,510.000000 672.000000,510.000000  M743.452698,461.802734   C748.269043,463.895172 749.500427,468.162567 749.787231,472.776215   C750.065979,477.259644 749.834473,481.772705 750.027344,486.264130   C750.226501,490.899963 750.140808,495.653961 751.226501,500.100677   C751.761108,502.290253 754.432129,505.003662 756.554932,505.438782   C758.346558,505.806091 761.288940,503.655426 762.716003,501.832001   C764.132568,500.021881 764.742493,497.262207 764.921265,494.860504   C765.489014,487.235992 765.733093,479.585815 766.021118,471.942505   C766.297424,464.610474 768.803955,461.352020 776.049866,459.925659   C780.114746,459.125488 784.287537,458.517914 788.419067,458.471039   C811.743713,458.206390 835.073303,458.304382 858.395264,457.919464   C867.508972,457.769073 876.625549,456.862579 885.702759,455.930084   C889.011047,455.590240 892.983337,455.106354 893.130188,450.265961   C893.272827,445.567322 890.327026,443.834900 886.207458,443.576660   C876.918030,442.994232 867.627563,442.364807 858.327576,442.029602   C836.733887,441.251282 815.108643,441.064636 793.547913,439.774017   C782.728699,439.126343 773.794312,433.644318 771.684082,422.168243   C769.236511,408.857513 767.130554,395.319000 766.751160,381.826630   C765.917542,352.188354 766.215881,322.516937 766.159302,292.858856   C766.142212,283.871033 765.995117,274.839844 766.787781,265.906586   C767.555237,257.257416 768.120911,257.187897 775.854736,261.836243   C794.866760,273.263214 813.737427,284.926636 832.804199,296.260681   C846.988831,304.692627 861.338745,312.851624 875.729065,320.929016   C880.042297,323.350067 883.317017,321.251892 884.413208,316.450409   C885.614990,311.186768 881.898315,309.448303 878.528870,307.316864   C850.444092,289.551300 822.300903,271.876892 794.303833,253.974121   C782.069214,246.150620 771.461731,236.739288 768.723022,221.433182   C767.555420,214.907455 766.562988,208.285004 766.307251,201.674911   C765.753967,187.371262 765.847412,173.043854 765.444824,158.732666   C765.154846,148.424423 764.595886,138.120148 763.953186,127.826813   C763.589966,122.009094 761.544128,120.289185 756.616089,120.892120   C751.835266,121.477051 752.207642,125.453735 752.070129,128.507034   C751.395996,143.467331 751.056763,158.442337 750.526062,173.409561   C750.001892,188.194351 749.597656,202.988358 748.721497,217.753448   C748.335938,224.249863 746.977051,224.777344 741.427673,221.435043   C702.563721,198.028152 663.783020,174.482727 624.886963,151.129471   C610.508423,142.496567 603.815491,129.975739 603.795471,113.320717   C603.765381,88.339142 603.460449,63.356522 603.070496,38.377502   C602.933044,29.573467 602.266296,20.774647 601.709900,11.981758   C601.496643,8.612886 600.352905,5.817791 596.252869,5.512066   C592.160400,5.206907 590.731262,7.885062 589.798035,11.085877   C589.289368,12.830429 588.803467,14.642476 588.724915,16.442314   C587.782593,38.042332 586.794678,59.641727 586.090576,81.250145   C585.776428,90.891068 581.371033,94.629333 573.130066,94.083961   C565.943298,93.608368 558.691223,94.225426 552.711243,98.852592   C549.555298,101.294579 546.757385,101.260704 543.567688,99.465881   C535.765869,95.075851 527.883789,90.822998 520.166687,86.289085   C502.634094,75.988327 485.381866,65.186836 467.572449,55.395012   C462.304077,52.498398 455.605591,51.377651 449.475647,51.045639   C436.825226,50.360462 426.041962,56.539482 415.613953,62.699089   C390.179718,77.722565 364.986176,93.152824 339.621613,108.295250   C331.641296,113.059441 323.499390,117.570335 315.264648,121.878380   C313.267029,122.923462 309.608521,125.627014 308.976898,120.396561   C308.041016,112.646568 307.082947,104.846916 306.986237,97.057831   C306.706848,74.563408 306.912262,52.063389 306.792480,29.566282   C306.761475,23.749237 306.415253,17.918367 305.885284,12.123899   C305.368408,6.472197 301.717987,4.559529 297.001343,7.680772   C295.164429,8.896325 293.768311,11.433189 293.130310,13.644812   C292.268616,16.631802 292.098694,19.880886 292.035645,23.025604   C291.621918,43.665154 291.477539,64.311249 290.916748,84.946281   C290.573883,97.563232 290.071106,110.208008 288.781128,122.751953   C288.228729,128.123566 286.029572,133.533539 283.623993,138.459869   C279.664703,146.567871 271.825531,150.797165 264.523010,155.339386   C238.459335,171.551193 212.387589,187.751450 186.204834,203.769623   C175.608795,210.252090 164.853409,216.505524 153.903824,222.364792   C148.778793,225.107269 147.113464,223.627579 147.053116,217.800873   C146.822037,195.484238 146.670883,173.166214 146.295212,150.851974   C146.155396,142.547241 145.600235,134.242722 144.990524,125.956055   C144.751190,122.703369 143.232590,120.593384 139.226776,120.724548   C135.486740,120.847008 134.149124,122.854973 133.826508,125.904762   C133.145294,132.344711 132.458908,138.800674 132.210403,145.266830   C131.360657,167.377533 130.766281,189.497971 129.943771,211.609833   C129.358109,227.354126 122.782372,240.080734 109.731087,249.023453   C95.917793,258.488281 81.961960,267.756042 67.868248,276.797913   C50.544071,287.912323 32.973862,298.642548 15.597124,309.676086   C11.008654,312.589508 11.696543,318.886200 16.773592,320.942108   C20.973251,322.642731 25.186619,322.605957 28.978611,319.517822   C31.294790,317.631592 33.587261,315.658234 36.127602,314.114288   C60.207188,299.479370 84.303185,284.870575 108.476524,270.391296   C114.952591,266.512268 121.709328,263.101898 128.810898,259.217255   C129.733810,261.633514 130.756409,263.110382 130.789124,264.608887   C130.915543,270.399445 130.670044,276.196838 130.663696,281.991791   C130.628128,314.479645 130.954315,346.972687 130.443970,379.452789   C130.236221,392.673767 128.951538,405.982391 126.844376,419.039368   C124.753723,431.993988 116.407448,439.021667 103.303383,439.873108   C86.882851,440.940002 70.411476,441.209747 53.965363,441.902222   C39.180779,442.524658 24.401999,443.284790 9.617612,443.912506   C6.043432,444.064240 4.828573,446.228851 4.292394,449.301483   C3.708632,452.646790 5.597671,454.461853 8.346253,455.201630   C11.689971,456.101593 15.176067,456.888763 18.614920,456.952667   C44.419952,457.432159 70.231064,457.599640 96.034485,458.141174   C104.152519,458.311554 112.301094,458.968994 120.347275,460.057251   C127.904594,461.079407 130.755768,464.808319 131.125427,472.539368   C131.252640,475.199921 131.103790,477.873047 131.207657,480.535492   C131.441010,486.516754 131.652802,492.501953 132.070847,498.471741   C132.332291,502.205048 133.660065,505.222778 138.094208,505.732758   C142.242813,506.209961 143.618073,503.369110 144.814346,500.377869   C145.481430,498.709930 146.041290,496.900024 146.147614,495.124084   C146.595032,487.651886 146.854019,480.168396 147.180679,472.688995   C147.509354,465.163696 150.639542,461.189270 157.966843,460.098511   C164.532349,459.121155 171.187576,458.302582 177.811172,458.238708   C202.639175,457.999329 227.472031,457.926147 252.299591,458.159821   C261.417358,458.245605 270.540222,459.200836 279.632111,460.062042   C284.641388,460.536530 289.114502,462.575439 290.627716,467.898254   C291.381348,470.549225 291.003662,473.506012 291.287537,476.309326   C292.103516,484.367065 292.793274,492.446411 293.955231,500.455963   C294.437805,503.782501 296.685303,506.220490 300.536316,505.945892   C304.475372,505.665070 305.832520,502.745056 306.210693,499.436340   C306.946259,493.000458 307.657837,486.543091 307.921326,480.075958   C308.421387,467.802826 312.221436,463.228516 324.468018,462.174286   C338.542572,460.962646 352.652832,459.650482 366.762451,459.454529   C415.900269,458.772003 465.044861,458.254913 514.186157,458.309174   C533.125793,458.330078 552.096252,459.642670 570.989624,461.154053   C581.815430,462.020081 588.008850,464.137299 587.271118,478.554596   C587.034790,483.173279 587.476807,487.878021 588.114868,492.473083   C588.583801,495.849731 589.370728,499.393616 590.996399,502.317993   C591.950867,504.035065 594.930176,505.714691 596.804504,505.521942   C598.626343,505.334564 600.781006,503.024170 601.727539,501.118591   C602.778931,499.001770 602.853516,496.298157 602.960999,493.832916   C603.301819,486.020447 603.302734,478.191132 603.744263,470.385834   C604.030457,465.325623 607.031067,461.886749 611.970093,461.069092   C619.652161,459.797363 627.418030,458.400757 635.167175,458.281860   C659.991699,457.901031 684.831116,457.745575 709.651917,458.201538   C720.712830,458.404694 731.743103,460.275818 743.452698,461.802734  z"/>
<path fill="#020202" opacity="1.000000" stroke="none" d=" M743.119995,461.596313   C731.743103,460.275818 720.712830,458.404694 709.651917,458.201538   C684.831116,457.745575 659.991699,457.901031 635.167175,458.281860   C627.418030,458.400757 619.652161,459.797363 611.970093,461.069092   C607.031067,461.886749 604.030457,465.325623 603.744263,470.385834   C603.302734,478.191132 603.301819,486.020447 602.960999,493.832916   C602.853516,496.298157 602.778931,499.001770 601.727539,501.118591   C600.781006,503.024170 598.626343,505.334564 596.804504,505.521942   C594.930176,505.714691 591.950867,504.035065 590.996399,502.317993   C589.370728,499.393616 588.583801,495.849731 588.114868,492.473083   C587.476807,487.878021 587.034790,483.173279 587.271118,478.554596   C588.008850,464.137299 581.815430,462.020081 570.989624,461.154053   C552.096252,459.642670 533.125793,458.330078 514.186157,458.309174   C465.044861,458.254913 415.900269,458.772003 366.762451,459.454529   C352.652832,459.650482 338.542572,460.962646 324.468018,462.174286   C312.221436,463.228516 308.421387,467.802826 307.921326,480.075958   C307.657837,486.543091 306.946259,493.000458 306.210693,499.436340   C305.832520,502.745056 304.475372,505.665070 300.536316,505.945892   C296.685303,506.220490 294.437805,503.782501 293.955231,500.455963   C292.793274,492.446411 292.103516,484.367065 291.287537,476.309326   C291.003662,473.506012 291.381348,470.549225 290.627716,467.898254   C289.114502,462.575439 284.641388,460.536530 279.632111,460.062042   C270.540222,459.200836 261.417358,458.245605 252.299591,458.159821   C227.472031,457.926147 202.639175,457.999329 177.811172,458.238708   C171.187576,458.302582 164.532349,459.121155 157.966843,460.098511   C150.639542,461.189270 147.509354,465.163696 147.180679,472.688995   C146.854019,480.168396 146.595032,487.651886 146.147614,495.124084   C146.041290,496.900024 145.481430,498.709930 144.814346,500.377869   C143.618073,503.369110 142.242813,506.209961 138.094208,505.732758   C133.660065,505.222778 132.332291,502.205048 132.070847,498.471741   C131.652802,492.501953 131.441010,486.516754 131.207657,480.535492   C131.103790,477.873047 131.252640,475.199921 131.125427,472.539368   C130.755768,464.808319 127.904594,461.079407 120.347275,460.057251   C112.301094,458.968994 104.152519,458.311554 96.034485,458.141174   C70.231064,457.599640 44.419952,457.432159 18.614920,456.952667   C15.176067,456.888763 11.689971,456.101593 8.346253,455.201630   C5.597671,454.461853 3.708632,452.646790 4.292394,449.301483   C4.828573,446.228851 6.043432,444.064240 9.617612,443.912506   C24.401999,443.284790 39.180779,442.524658 53.965363,441.902222   C70.411476,441.209747 86.882851,440.940002 103.303383,439.873108   C116.407448,439.021667 124.753723,431.993988 126.844376,419.039368   C128.951538,405.982391 130.236221,392.673767 130.443970,379.452789   C130.954315,346.972687 130.628128,314.479645 130.663696,281.991791   C130.670044,276.196838 130.915543,270.399445 130.789124,264.608887   C130.756409,263.110382 129.733810,261.633514 128.810898,259.217255   C121.709328,263.101898 114.952591,266.512268 108.476524,270.391296   C84.303185,284.870575 60.207188,299.479370 36.127602,314.114288   C33.587261,315.658234 31.294790,317.631592 28.978611,319.517822   C25.186619,322.605957 20.973251,322.642731 16.773592,320.942108   C11.696543,318.886200 11.008654,312.589508 15.597124,309.676086   C32.973862,298.642548 50.544071,287.912323 67.868248,276.797913   C81.961960,267.756042 95.917793,258.488281 109.731087,249.023453   C122.782372,240.080734 129.358109,227.354126 129.943771,211.609833   C130.766281,189.497971 131.360657,167.377533 132.210403,145.266830   C132.458908,138.800674 133.145294,132.344711 133.826508,125.904762   C134.149124,122.854973 135.486740,120.847008 139.226776,120.724548   C143.232590,120.593384 144.751190,122.703369 144.990524,125.956055   C145.600235,134.242722 146.155396,142.547241 146.295212,150.851974   C146.670883,173.166214 146.822037,195.484238 147.053116,217.800873   C147.113464,223.627579 148.778793,225.107269 153.903824,222.364792   C164.853409,216.505524 175.608795,210.252090 186.204834,203.769623   C212.387589,187.751450 238.459335,171.551193 264.523010,155.339386   C271.825531,150.797165 279.664703,146.567871 283.623993,138.459869   C286.029572,133.533539 288.228729,128.123566 288.781128,122.751953   C290.071106,110.208008 290.573883,97.563232 290.916748,84.946281   C291.477539,64.311249 291.621918,43.665154 292.035645,23.025604   C292.098694,19.880886 292.268616,16.631802 293.130310,13.644812   C293.768311,11.433189 295.164429,8.896325 297.001343,7.680772   C301.717987,4.559529 305.368408,6.472197 305.885284,12.123899   C306.415253,17.918367 306.761475,23.749237 306.792480,29.566282   C306.912262,52.063389 306.706848,74.563408 306.986237,97.057831   C307.082947,104.846916 308.041016,112.646568 308.976898,120.396561   C309.608521,125.627014 313.267029,122.923462 315.264648,121.878380   C323.499390,117.570335 331.641296,113.059441 339.621613,108.295250   C364.986176,93.152824 390.179718,77.722565 415.613953,62.699089   C426.041962,56.539482 436.825226,50.360462 449.475647,51.045639   C455.605591,51.377651 462.304077,52.498398 467.572449,55.395012   C485.381866,65.186836 502.634094,75.988327 520.166687,86.289085   C527.883789,90.822998 535.765869,95.075851 543.567688,99.465881   C546.757385,101.260704 549.555298,101.294579 552.711243,98.852592   C558.691223,94.225426 565.943298,93.608368 573.130066,94.083961   C581.371033,94.629333 585.776428,90.891068 586.090576,81.250145   C586.794678,59.641727 587.782593,38.042332 588.724915,16.442314   C588.803467,14.642476 589.289368,12.830429 589.798035,11.085877   C590.731262,7.885062 592.160400,5.206907 596.252869,5.512066   C600.352905,5.817791 601.496643,8.612886 601.709900,11.981758   C602.266296,20.774647 602.933044,29.573467 603.070496,38.377502   C603.460449,63.356522 603.765381,88.339142 603.795471,113.320717   C603.815491,129.975739 610.508423,142.496567 624.886963,151.129471   C663.783020,174.482727 702.563721,198.028152 741.427673,221.435043   C746.977051,224.777344 748.335938,224.249863 748.721497,217.753448   C749.597656,202.988358 750.001892,188.194351 750.526062,173.409561   C751.056763,158.442337 751.395996,143.467331 752.070129,128.507034   C752.207642,125.453735 751.835266,121.477051 756.616089,120.892120   C761.544128,120.289185 763.589966,122.009094 763.953186,127.826813   C764.595886,138.120148 765.154846,148.424423 765.444824,158.732666   C765.847412,173.043854 765.753967,187.371262 766.307251,201.674911   C766.562988,208.285004 767.555420,214.907455 768.723022,221.433182   C771.461731,236.739288 782.069214,246.150620 794.303833,253.974121   C822.300903,271.876892 850.444092,289.551300 878.528870,307.316864   C881.898315,309.448303 885.614990,311.186768 884.413208,316.450409   C883.317017,321.251892 880.042297,323.350067 875.729065,320.929016   C861.338745,312.851624 846.988831,304.692627 832.804199,296.260681   C813.737427,284.926636 794.866760,273.263214 775.854736,261.836243   C768.120911,257.187897 767.555237,257.257416 766.787781,265.906586   C765.995117,274.839844 766.142212,283.871033 766.159302,292.858856   C766.215881,322.516937 765.917542,352.188354 766.751160,381.826630   C767.130554,395.319000 769.236511,408.857513 771.684082,422.168243   C773.794312,433.644318 782.728699,439.126343 793.547913,439.774017   C815.108643,441.064636 836.733887,441.251282 858.327576,442.029602   C867.627563,442.364807 876.918030,442.994232 886.207458,443.576660   C890.327026,443.834900 893.272827,445.567322 893.130188,450.265961   C892.983337,455.106354 889.011047,455.590240 885.702759,455.930084   C876.625549,456.862579 867.508972,457.769073 858.395264,457.919464   C835.073303,458.304382 811.743713,458.206390 788.419067,458.471039   C784.287537,458.517914 780.114746,459.125488 776.049866,459.925659   C768.803955,461.352020 766.297424,464.610474 766.021118,471.942505   C765.733093,479.585815 765.489014,487.235992 764.921265,494.860504   C764.742493,497.262207 764.132568,500.021881 762.716003,501.832001   C761.288940,503.655426 758.346558,505.806091 756.554932,505.438782   C754.432129,505.003662 751.761108,502.290253 751.226501,500.100677   C750.140808,495.653961 750.226501,490.899963 750.027344,486.264130   C749.834473,481.772705 750.065979,477.259644 749.787231,472.776215   C749.500427,468.162567 748.269043,463.895172 743.119995,461.596313  M614.388428,431.069153   C620.646790,436.891937 628.341187,439.581207 636.600586,439.847839   C656.561646,440.492126 676.539246,440.855255 696.510071,440.851318   C704.789307,440.849670 713.149170,440.129364 721.328308,438.829834   C733.260437,436.933990 742.135254,430.605682 744.651184,418.139709   C746.518005,408.889587 748.259094,399.450623 748.472107,390.059845   C749.208374,357.598663 749.499512,325.121185 749.425110,292.651154   C749.398560,281.054962 748.225403,269.418243 746.878113,257.881439   C745.731018,248.059311 740.846497,239.901688 732.329529,234.627625   C717.842102,225.656418 703.182495,216.956146 688.449585,208.392593   C683.410889,205.463852 681.440674,206.505875 678.915710,212.102615   C675.201660,220.335175 672.651733,221.892105 664.300781,218.073746   C652.648499,212.745834 641.424683,206.468887 630.093811,200.454315   C623.494385,196.951248 617.152893,192.951248 610.486450,189.589050   C606.310120,187.482712 603.945251,189.033875 603.913940,193.486679   C603.817200,207.260010 603.892151,221.034454 603.843384,234.808273   C603.823792,240.331314 607.087341,243.551865 611.812561,244.832794   C617.039673,246.249832 622.523682,247.328415 627.915649,247.423203   C650.897644,247.827240 673.888611,247.698944 696.872498,248.031189   C702.633789,248.114487 708.409851,248.996994 714.123962,249.872238   C717.883850,250.448135 718.267700,253.639343 718.354370,256.774139   C718.446594,260.110474 716.306580,260.981262 713.553894,261.163330   C700.950134,261.997101 688.354675,263.018066 675.738953,263.592896   C660.614746,264.281952 645.467468,264.455200 630.340881,265.102203   C619.536133,265.564301 609.352844,272.811523 608.221191,281.172363   C606.510559,293.810181 604.271667,306.525635 604.244812,319.212341   C604.181641,349.000488 604.985840,378.803223 606.146973,408.572449   C606.447510,416.278442 608.279114,424.281097 614.388428,431.069153  M258.397308,247.715790   C265.018036,247.160278 271.673767,246.865189 278.250305,245.980957   C285.860474,244.957779 291.530212,241.564026 291.157898,231.196655   C290.919067,224.547394 291.257446,217.878525 291.287079,211.218216   C291.319550,203.927170 291.294434,196.635895 291.294434,188.295074   C288.201874,189.237762 286.083466,189.544495 284.306305,190.491547   C279.761841,192.913269 275.380463,195.639465 270.913818,198.209030   C260.559174,204.165817 250.164536,210.053574 239.838440,216.059280   C227.833725,223.041260 227.877075,220.911743 218.943390,212.027954   C213.885986,206.998840 211.418533,206.348846 205.422943,209.831482   C193.521713,216.744522 181.709686,223.814514 169.945496,230.959076   C158.709351,237.782913 151.075546,247.437012 149.298889,260.650116   C147.972168,270.516998 147.194611,280.532684 147.161377,290.485413   C147.024185,331.555634 145.418198,372.711670 151.173492,413.558716   C152.692963,424.342804 157.423340,434.069183 169.440018,436.997742   C176.957413,438.829742 184.687622,440.510681 192.373932,440.778534   C208.848541,441.352661 225.360138,441.169464 241.849380,440.882385   C249.302628,440.752686 256.809143,440.064941 264.165466,438.860565   C274.395355,437.185760 282.742676,432.410004 285.567627,421.547424   C287.144135,415.485413 288.678131,409.236969 288.892700,403.026337   C289.852325,375.250763 290.837463,347.457001 290.750732,319.673126   C290.712128,307.316101 288.782898,294.851013 286.507080,282.659851   C285.240204,275.873535 281.112061,269.564331 273.629089,267.665344   C267.095001,266.007202 260.319611,264.766602 253.601166,264.471252   C235.646835,263.681915 217.663162,263.585266 199.696960,263.026550   C194.053314,262.851044 188.362732,262.432770 182.829010,261.400177   C180.823349,261.025879 177.469513,257.969604 177.746735,257.112183   C178.603241,254.463211 180.780258,252.165039 182.732788,249.989365   C183.383713,249.264038 184.891525,249.129562 186.030334,249.049911   C192.165253,248.620712 198.304520,248.048615 204.447479,247.977951   C222.104080,247.774857 239.763153,247.788788 258.397308,247.715790  M482.500122,236.772507   C427.643890,236.748657 372.779785,237.224091 317.566223,233.926590   C320.124146,231.107483 322.920380,228.783295 325.951874,226.822891   C346.163849,213.752304 366.321411,200.592545 386.707520,187.797775   C401.173676,178.718521 415.875610,170.002670 430.648987,161.429077   C442.877716,154.332245 455.225220,152.433655 467.859711,161.174423   C477.934662,168.144470 488.396515,174.563171 498.779816,181.078079   C525.887024,198.086182 553.037109,215.026154 580.204590,231.937744   C581.791016,232.925308 583.683960,233.420563 585.434265,234.144913   C586.268555,232.097427 587.769592,230.067368 587.823547,227.999527   C588.080017,218.177536 587.693359,208.337296 588.007019,198.518616   C588.411011,185.870605 583.508606,175.876297 573.115417,169.059341   C557.610474,158.889603 541.894714,149.018402 525.985168,139.493790   C502.543823,125.460159 478.775360,111.973160 455.324219,97.955589   C449.632751,94.553596 444.932343,95.220894 439.616913,98.406441   C423.228210,108.228188 406.563904,117.594276 390.258789,127.550301   C364.587158,143.225601 339.122162,159.239243 313.566681,175.104828   C308.948914,177.971710 306.648560,182.045364 306.911194,187.536530   C307.561127,201.124725 308.731415,214.720306 308.585907,228.301056   C308.510010,235.382401 312.474731,237.881058 317.483032,240.333908   C318.966919,241.060654 320.550354,241.782516 322.160156,242.021286   C331.808441,243.452393 341.440643,245.273956 351.148926,245.950653   C364.757538,246.899231 378.426971,247.299637 392.072235,247.342468   C450.716278,247.526596 509.361053,247.532959 568.005432,247.476151   C573.446167,247.470871 578.924194,246.796921 584.300415,245.916901   C585.712341,245.685760 587.826355,243.479324 587.779297,242.250488   C587.725403,240.846359 585.754272,239.349762 584.344238,238.238388   C583.704956,237.734482 582.410400,238.030563 581.412354,238.017761   C548.775024,237.598602 516.137573,237.186035 482.500122,236.772507  M475.784973,367.348236   C486.404572,366.449036 494.772125,362.344116 497.042084,350.942902   C498.217377,345.039703 498.347931,338.928345 498.947845,332.910767   C499.421143,328.163330 496.785339,325.228333 492.538147,325.154724   C481.983307,324.971893 471.412537,325.414368 460.855835,325.809967   C457.650146,325.930084 456.340637,328.262054 456.344086,331.311188   C456.352783,338.960205 455.442352,346.761292 456.638214,354.222900   C458.470673,365.656403 457.256561,367.370728 470.429260,367.397491   C471.925781,367.400543 473.422394,367.386292 475.784973,367.348236  M408.550079,363.021027   C415.997955,369.401520 424.664856,367.808807 433.183472,366.617645   C436.555511,366.146149 438.909027,364.217621 439.068726,360.350281   C439.402893,352.259033 440.281647,344.160858 440.071808,336.088043   C439.952637,331.504730 438.398376,326.417969 432.507782,325.922363   C423.742706,325.184875 414.920685,324.576385 406.139221,324.748322   C398.572510,324.896423 397.890015,326.184753 397.909180,333.812042   C397.916290,336.638214 398.164886,339.485809 397.904785,342.286591   C397.078278,351.186432 401.432983,357.383789 408.550079,363.021027  M494.487183,277.121155   C491.968964,271.679077 487.285736,269.392120 481.711578,269.104309   C475.243530,268.770325 468.745758,269.045929 462.261841,268.973816   C458.228455,268.928986 456.463409,271.269348 456.398346,274.846161   C456.240997,283.497070 456.172852,292.157532 456.421295,300.804016   C456.523590,304.364777 457.894379,308.066681 462.206512,308.129028   C473.229004,308.288361 484.263550,308.135773 495.276611,307.693359   C496.498016,307.644287 498.447937,305.014526 498.636444,303.413940   C499.676086,294.586731 498.939423,285.918793 494.487183,277.121155  M398.323853,287.012390   C398.291107,290.836365 398.066772,294.670563 398.269684,298.481995   C398.590851,304.514038 400.713013,307.213470 406.594818,307.569153   C414.709778,308.059845 422.901489,308.181519 431.006836,307.648315   C437.608307,307.214050 440.398834,303.546631 440.591583,296.643524   C440.786469,289.663147 440.616180,282.672668 440.804077,275.691925   C440.927795,271.094788 438.974487,268.894348 434.341431,268.968048   C429.527069,269.044678 424.709961,269.040833 419.895172,268.981354   C408.073578,268.835297 400.893433,273.028778 398.323853,287.012390  z"/>
<path fill="#FEFEFE" opacity="1.000000" stroke="none" d=" M614.192871,430.762421   C608.279114,424.281097 606.447510,416.278442 606.146973,408.572449   C604.985840,378.803223 604.181641,349.000488 604.244812,319.212341   C604.271667,306.525635 606.510559,293.810181 608.221191,281.172363   C609.352844,272.811523 619.536133,265.564301 630.340881,265.102203   C645.467468,264.455200 660.614746,264.281952 675.738953,263.592896   C688.354675,263.018066 700.950134,261.997101 713.553894,261.163330   C716.306580,260.981262 718.446594,260.110474 718.354370,256.774139   C718.267700,253.639343 717.883850,250.448135 714.123962,249.872238   C708.409851,248.996994 702.633789,248.114487 696.872498,248.031189   C673.888611,247.698944 650.897644,247.827240 627.915649,247.423203   C622.523682,247.328415 617.039673,246.249832 611.812561,244.832794   C607.087341,243.551865 603.823792,240.331314 603.843384,234.808273   C603.892151,221.034454 603.817200,207.260010 603.913940,193.486679   C603.945251,189.033875 606.310120,187.482712 610.486450,189.589050   C617.152893,192.951248 623.494385,196.951248 630.093811,200.454315   C641.424683,206.468887 652.648499,212.745834 664.300781,218.073746   C672.651733,221.892105 675.201660,220.335175 678.915710,212.102615   C681.440674,206.505875 683.410889,205.463852 688.449585,208.392593   C703.182495,216.956146 717.842102,225.656418 732.329529,234.627625   C740.846497,239.901688 745.731018,248.059311 746.878113,257.881439   C748.225403,269.418243 749.398560,281.054962 749.425110,292.651154   C749.499512,325.121185 749.208374,357.598663 748.472107,390.059845   C748.259094,399.450623 746.518005,408.889587 744.651184,418.139709   C742.135254,430.605682 733.260437,436.933990 721.328308,438.829834   C713.149170,440.129364 704.789307,440.849670 696.510071,440.851318   C676.539246,440.855255 656.561646,440.492126 636.600586,439.847839   C628.341187,439.581207 620.646790,436.891937 614.192871,430.762421  z"/>
<path fill="#FEFEFE" opacity="1.000000" stroke="none" d=" M257.909302,247.716614   C239.763153,247.788788 222.104080,247.774857 204.447479,247.977951   C198.304520,248.048615 192.165253,248.620712 186.030334,249.049911   C184.891525,249.129562 183.383713,249.264038 182.732788,249.989365   C180.780258,252.165039 178.603241,254.463211 177.746735,257.112183   C177.469513,257.969604 180.823349,261.025879 182.829010,261.400177   C188.362732,262.432770 194.053314,262.851044 199.696960,263.026550   C217.663162,263.585266 235.646835,263.681915 253.601166,264.471252   C260.319611,264.766602 267.095001,266.007202 273.629089,267.665344   C281.112061,269.564331 285.240204,275.873535 286.507080,282.659851   C288.782898,294.851013 290.712128,307.316101 290.750732,319.673126   C290.837463,347.457001 289.852325,375.250763 288.892700,403.026337   C288.678131,409.236969 287.144135,415.485413 285.567627,421.547424   C282.742676,432.410004 274.395355,437.185760 264.165466,438.860565   C256.809143,440.064941 249.302628,440.752686 241.849380,440.882385   C225.360138,441.169464 208.848541,441.352661 192.373932,440.778534   C184.687622,440.510681 176.957413,438.829742 169.440018,436.997742   C157.423340,434.069183 152.692963,424.342804 151.173492,413.558716   C145.418198,372.711670 147.024185,331.555634 147.161377,290.485413   C147.194611,280.532684 147.972168,270.516998 149.298889,260.650116   C151.075546,247.437012 158.709351,237.782913 169.945496,230.959076   C181.709686,223.814514 193.521713,216.744522 205.422943,209.831482   C211.418533,206.348846 213.885986,206.998840 218.943390,212.027954   C227.877075,220.911743 227.833725,223.041260 239.838440,216.059280   C250.164536,210.053574 260.559174,204.165817 270.913818,198.209030   C275.380463,195.639465 279.761841,192.913269 284.306305,190.491547   C286.083466,189.544495 288.201874,189.237762 291.294434,188.295074   C291.294434,196.635895 291.319550,203.927170 291.287079,211.218216   C291.257446,217.878525 290.919067,224.547394 291.157898,231.196655   C291.530212,241.564026 285.860474,244.957779 278.250305,245.980957   C271.673767,246.865189 265.018036,247.160278 257.909302,247.716614  z"/>
<path fill="#FCFCFC" opacity="1.000000" stroke="none" d=" M483.000153,236.772491   C516.137573,237.186035 548.775024,237.598602 581.412354,238.017761   C582.410400,238.030563 583.704956,237.734482 584.344238,238.238388   C585.754272,239.349762 587.725403,240.846359 587.779297,242.250488   C587.826355,243.479324 585.712341,245.685760 584.300415,245.916901   C578.924194,246.796921 573.446167,247.470871 568.005432,247.476151   C509.361053,247.532959 450.716278,247.526596 392.072235,247.342468   C378.426971,247.299637 364.757538,246.899231 351.148926,245.950653   C341.440643,245.273956 331.808441,243.452393 322.160156,242.021286   C320.550354,241.782516 318.966919,241.060654 317.483032,240.333908   C312.474731,237.881058 308.510010,235.382401 308.585907,228.301056   C308.731415,214.720306 307.561127,201.124725 306.911194,187.536530   C306.648560,182.045364 308.948914,177.971710 313.566681,175.104828   C339.122162,159.239243 364.587158,143.225601 390.258789,127.550301   C406.563904,117.594276 423.228210,108.228188 439.616913,98.406441   C444.932343,95.220894 449.632751,94.553596 455.324219,97.955589   C478.775360,111.973160 502.543823,125.460159 525.985168,139.493790   C541.894714,149.018402 557.610474,158.889603 573.115417,169.059341   C583.508606,175.876297 588.411011,185.870605 588.007019,198.518616   C587.693359,208.337296 588.080017,218.177536 587.823547,227.999527   C587.769592,230.067368 586.268555,232.097427 585.434265,234.144913   C583.683960,233.420563 581.791016,232.925308 580.204590,231.937744   C553.037109,215.026154 525.887024,198.086182 498.779816,181.078079   C488.396515,174.563171 477.934662,168.144470 467.859711,161.174423   C455.225220,152.433655 442.877716,154.332245 430.648987,161.429077   C415.875610,170.002670 401.173676,178.718521 386.707520,187.797775   C366.321411,200.592545 346.163849,213.752304 325.951874,226.822891   C322.920380,228.783295 320.124146,231.107483 317.566223,233.926590   C372.779785,237.224091 427.643890,236.748657 483.000153,236.772491  z"/>
<path fill="#FAFAFA" opacity="1.000000" stroke="none" d=" M475.351959,367.364136   C473.422394,367.386292 471.925781,367.400543 470.429260,367.397491   C457.256561,367.370728 458.470673,365.656403 456.638214,354.222900   C455.442352,346.761292 456.352783,338.960205 456.344086,331.311188   C456.340637,328.262054 457.650146,325.930084 460.855835,325.809967   C471.412537,325.414368 481.983307,324.971893 492.538147,325.154724   C496.785339,325.228333 499.421143,328.163330 498.947845,332.910767   C498.347931,338.928345 498.217377,345.039703 497.042084,350.942902   C494.772125,362.344116 486.404572,366.449036 475.351959,367.364136  z"/>
<path fill="#FCFCFC" opacity="1.000000" stroke="none" d=" M408.300293,362.756805   C401.432983,357.383789 397.078278,351.186432 397.904785,342.286591   C398.164886,339.485809 397.916290,336.638214 397.909180,333.812042   C397.890015,326.184753 398.572510,324.896423 406.139221,324.748322   C414.920685,324.576385 423.742706,325.184875 432.507782,325.922363   C438.398376,326.417969 439.952637,331.504730 440.071808,336.088043   C440.281647,344.160858 439.402893,352.259033 439.068726,360.350281   C438.909027,364.217621 436.555511,366.146149 433.183472,366.617645   C424.664856,367.808807 415.997955,369.401520 408.300293,362.756805  z"/>
<path fill="#FBFBFB" opacity="1.000000" stroke="none" d=" M494.604675,277.482605   C498.939423,285.918793 499.676086,294.586731 498.636444,303.413940   C498.447937,305.014526 496.498016,307.644287 495.276611,307.693359   C484.263550,308.135773 473.229004,308.288361 462.206512,308.129028   C457.894379,308.066681 456.523590,304.364777 456.421295,300.804016   C456.172852,292.157532 456.240997,283.497070 456.398346,274.846161   C456.463409,271.269348 458.228455,268.928986 462.261841,268.973816   C468.745758,269.045929 475.243530,268.770325 481.711578,269.104309   C487.285736,269.392120 491.968964,271.679077 494.604675,277.482605  z"/>
<path fill="#FAFAFA" opacity="1.000000" stroke="none" d=" M398.353851,286.572876   C400.893433,273.028778 408.073578,268.835297 419.895172,268.981354   C424.709961,269.040833 429.527069,269.044678 434.341431,268.968048   C438.974487,268.894348 440.927795,271.094788 440.804077,275.691925   C440.616180,282.672668 440.786469,289.663147 440.591583,296.643524   C440.398834,303.546631 437.608307,307.214050 431.006836,307.648315   C422.901489,308.181519 414.709778,308.059845 406.594818,307.569153   C400.713013,307.213470 398.590851,304.514038 398.269684,298.481995   C398.066772,294.670563 398.291107,290.836365 398.353851,286.572876  z"/>
</svg>